<?xml version="1.0" encoding="utf-8"?>
<!-- Generator: Adobe Illustrator 26.0.0, SVG Export Plug-In . SVG Version: 6.00 Build 0)  -->
<svg version="1.1" id="Layer_1" xmlns="http://www.w3.org/2000/svg" xmlns:xlink="http://www.w3.org/1999/xlink" x="0px" y="0px"
	 viewBox="0 0 32 8" style="enable-background:new 0 0 32 8;" xml:space="preserve">
<style type="text/css">
	.st0{fill:#FFFFFF;}
	.st1{display:none;}
	.st2{display:inline;fill:#FFFFFF;}
	.st3{fill:url(#SVGID_1_);}
	.st4{fill:url(#SVGID_00000105415480935336983240000008946550144352007048_);}
	.st5{fill:url(#SVGID_00000020394373341014499960000004310650250234123961_);}
	.st6{fill:url(#SVGID_00000132793945068793944760000006212811129060893104_);}
</style>
<rect width="32" height="8"/>
<g>
	<g>
		<g>
			<g>
				<path class="st0" d="M9.54,1.27v0.4H8.53L8.54,4.3H8.1V1.67h-1v-0.4H9.54z"/>
				<path class="st0" d="M11.69,4.29h-0.38V3.06c-0.08-0.29-0.32-0.49-0.61-0.49s-0.52,0.21-0.61,0.48v1.24H9.7H9.68V1.06h0.4V2.4
					c0.17-0.14,0.38-0.22,0.61-0.22c0.52,0,0.95,0.44,1,0.99C11.7,3.23,11.7,3.29,11.69,4.29z"/>
				<path class="st0" d="M14.03,3.22c0,0.07,0,0.13-0.02,0.19h-0.04h-0.35h-1.29c0.08,0.29,0.34,0.5,0.64,0.5
					c0.14,0,0.26-0.04,0.36-0.11h0.54c-0.19,0.31-0.52,0.51-0.9,0.51c-0.57,0-1.05-0.48-1.05-1.08s0.48-1.09,1.05-1.09
					C13.56,2.13,14.03,2.62,14.03,3.22z M12.33,3.03h1.29c-0.08-0.29-0.34-0.5-0.65-0.5C12.66,2.53,12.41,2.74,12.33,3.03z"/>
				<path class="st0" d="M18.39,2.4c0.19-0.15,0.41-0.25,0.67-0.25v0.38c-0.38,0-0.63,0.31-0.67,0.68v1.08H18V2.13h0.39V2.4z"/>
				<path class="st0" d="M21.19,3.22c0,0.07,0,0.13-0.02,0.19h-0.04h-0.35h-1.29c0.08,0.29,0.34,0.5,0.64,0.5
					c0.14,0,0.26-0.04,0.36-0.11h0.54c-0.19,0.31-0.52,0.51-0.9,0.51c-0.57,0-1.05-0.48-1.05-1.08s0.48-1.09,1.05-1.09
					C20.72,2.13,21.19,2.62,21.19,3.22z M19.49,3.03h1.29c-0.08-0.29-0.34-0.5-0.65-0.5C19.83,2.53,19.57,2.74,19.49,3.03z"/>
				<path class="st0" d="M25.11,4.29h-0.39V3.04c-0.09-0.29-0.33-0.49-0.62-0.49c-0.31,0-0.55,0.21-0.63,0.51v1.23h-0.4V4.26
					l0.01-1.23c-0.09-0.29-0.32-0.49-0.62-0.49c-0.28,0-0.51,0.17-0.6,0.43V4.3h-0.4V2.14h0.4v0.22c0.17-0.14,0.38-0.22,0.6-0.22
					c0.33,0,0.62,0.18,0.81,0.45c0.19-0.27,0.48-0.45,0.83-0.45c0.37,0,0.67,0.22,0.86,0.53c0.09,0.14,0.13,0.31,0.16,0.48
					L25.11,4.29z"/>
				<path class="st0" d="M25.5,1.31c0.11,0,0.2,0.1,0.2,0.2c0,0.11-0.09,0.2-0.2,0.2s-0.2-0.09-0.2-0.2
					C25.3,1.4,25.39,1.31,25.5,1.31z M25.7,4.29h-0.39V2.13h0.39V4.29z"/>
				<path class="st0" d="M27.94,2.14v2.15h-0.37V4.06c-0.18,0.14-0.38,0.23-0.62,0.23c-0.36,0-0.68-0.21-0.87-0.52
					C26,3.63,25.95,3.46,25.93,3.28v-0.2V2.14h0.39V2.3v0.67v0.41c0.08,0.29,0.33,0.49,0.62,0.49s0.54-0.2,0.62-0.49V2.13l0,0h0.34
					L27.94,2.14L27.94,2.14z"/>
				<path class="st0" d="M31.86,4.29h-0.39V3.04c-0.09-0.29-0.33-0.49-0.62-0.49c-0.31,0-0.55,0.21-0.63,0.51v1.23h-0.4V4.26
					l0.01-1.23c-0.09-0.29-0.32-0.49-0.62-0.49c-0.28,0-0.51,0.17-0.6,0.43V4.3h-0.4V2.14h0.4v0.22c0.17-0.14,0.38-0.22,0.6-0.22
					c0.33,0,0.62,0.18,0.81,0.45c0.19-0.27,0.48-0.45,0.83-0.45c0.37,0,0.67,0.22,0.86,0.53c0.09,0.14,0.13,0.31,0.16,0.48
					L31.86,4.29z"/>
			</g>
			<g>
				<path class="st0" d="M10.28,6.49c0,0.29-0.28,0.5-0.54,0.51l0,0C9.48,6.99,9.27,6.84,9.12,6.64l0.29-0.21
					C9.49,6.54,9.6,6.64,9.74,6.64c0.11,0,0.19-0.09,0.19-0.15c0-0.11-0.13-0.16-0.26-0.24C9.48,6.14,9.24,6.01,9.24,5.72
					c0-0.32,0.27-0.49,0.53-0.49c0.17,0,0.36,0.08,0.46,0.18L9.98,5.67C9.9,5.62,9.83,5.59,9.77,5.59c-0.08,0-0.18,0.03-0.18,0.13
					c0,0.07,0.13,0.15,0.28,0.23C10.06,6.05,10.28,6.19,10.28,6.49z"/>
				<path class="st0" d="M13.72,5.55v1.41h-0.38V5.55h-0.38l0.02-0.29h1.09l0.02,0.29H13.72z"/>
				<path class="st0" d="M18.06,5.26v1.09l0,0c-0.01,0.33-0.27,0.61-0.61,0.61c-0.32,0-0.61-0.27-0.61-0.61V5.26h0.38v1.09
					c0,0.12,0.1,0.23,0.23,0.23s0.23-0.1,0.23-0.23l0,0V5.26H18.06z"/>
				<path class="st0" d="M21.41,5.26c0.46,0.01,0.85,0.38,0.85,0.85c0,0.44-0.38,0.85-0.85,0.85h-0.57v-1.7H21.41z M21.41,5.55
					h-0.19v1.12h0.19c0.29,0,0.44-0.25,0.44-0.56C21.85,5.82,21.73,5.55,21.41,5.55z"/>
				<path class="st0" d="M25.38,6.96H25v-1.7h0.38V6.96z"/>
				<path class="st0" d="M29.86,6.11c0,0.48-0.4,0.86-0.87,0.87c-0.46,0-0.87-0.38-0.87-0.87c0-0.46,0.4-0.87,0.87-0.87
					C29.45,5.24,29.86,5.64,29.86,6.11z M29.46,6.11c0-0.26-0.18-0.56-0.47-0.56c-0.28,0-0.47,0.28-0.47,0.56
					c0,0.27,0.18,0.55,0.47,0.56C29.26,6.67,29.46,6.4,29.46,6.11z"/>
			</g>
			<g>
				<path class="st0" d="M16.65,3.42h-0.49v0.87h-0.41V1.28h0.9c0.6,0,1.06,0.49,1.06,1.06c0,0.38-0.19,0.71-0.49,0.9
					C17.03,3.35,16.8,3.42,16.65,3.42z M16.16,3h0.49c0.34,0,0.64-0.29,0.64-0.67c0-0.35-0.3-0.64-0.64-0.64h-0.49V3z"/>
			</g>
		</g>
		<g>
			<g class="st1">
				<path class="st2" d="M15.72,3.8c0.7,0,1.26-0.57,1.26-1.26c0-0.7-0.57-1.26-1.26-1.26c-0.7,0-1.26,0.57-1.26,1.26v0.23v0.76l0,0
					v0.55l0,0c0.1,0.08,0.2,0.15,0.31,0.21V3.83V3.66V3.35C14.99,3.63,15.33,3.8,15.72,3.8z M14.76,2.53c0-0.53,0.43-0.95,0.95-0.95
					c0.53,0,0.95,0.43,0.95,0.95c0,0.53-0.43,0.95-0.95,0.95c-0.51,0-0.92-0.4-0.95-0.9L14.76,2.53L14.76,2.53z"/>
				<path class="st2" d="M15.72,3.24c0.38,0,0.68-0.3,0.68-0.68s-0.3-0.68-0.68-0.68s-0.68,0.3-0.68,0.68S15.34,3.24,15.72,3.24z
					 M15.72,2.11c0.25,0,0.45,0.2,0.45,0.45s-0.2,0.45-0.45,0.45s-0.45-0.2-0.45-0.45C15.27,2.31,15.47,2.11,15.72,2.11z"/>
				<circle class="st2" cx="15.72" cy="2.56" r="0.24"/>
			</g>
			<g>
				
					<linearGradient id="SVGID_1_" gradientUnits="userSpaceOnUse" x1="1.1916" y1="554.2422" x2="5.0573" y2="554.2422" gradientTransform="matrix(1 0 0 1 0 -549.7872)">
					<stop  offset="0" style="stop-color:#8A6D06"/>
					<stop  offset="1" style="stop-color:#FACD30"/>
				</linearGradient>
				<path class="st3" d="M3.13,6C4.2,6,5.06,5.13,5.06,4.07S4.19,2.14,3.13,2.14c-1.07,0-1.93,0.87-1.93,1.93v0.36V5.6l0,0v0.85l0,0
					c0.15,0.12,0.31,0.23,0.47,0.32v-0.7V5.81V5.34C2.02,5.74,2.55,6,3.13,6z M1.67,4.07c0-0.81,0.66-1.46,1.46-1.46
					s1.46,0.66,1.46,1.46S3.93,5.53,3.13,5.53c-0.78,0-1.42-0.61-1.46-1.38V4.07L1.67,4.07z"/>
				
					<linearGradient id="SVGID_00000064320747793079841950000017543694284082269350_" gradientUnits="userSpaceOnUse" x1="2.0828" y1="553.8972" x2="4.1662" y2="553.8972" gradientTransform="matrix(1 0 0 1 0 -549.7872)">
					<stop  offset="0" style="stop-color:#8A6D06"/>
					<stop  offset="1" style="stop-color:#FACD30"/>
				</linearGradient>
				<path style="fill:url(#SVGID_00000064320747793079841950000017543694284082269350_);" d="M3.13,5.15c0.58,0,1.04-0.47,1.04-1.04
					c0-0.58-0.47-1.04-1.04-1.04S2.09,3.53,2.09,4.11S2.55,5.15,3.13,5.15z M3.13,3.42c0.38,0,0.69,0.31,0.69,0.69
					S3.51,4.8,3.13,4.8S2.44,4.49,2.44,4.11C2.44,3.73,2.75,3.42,3.13,3.42z"/>
				
					<linearGradient id="SVGID_00000113330569325826897010000015444248183370115493_" gradientUnits="userSpaceOnUse" x1="2.764" y1="553.8972" x2="3.485" y2="553.8972" gradientTransform="matrix(1 0 0 1 0 -549.7872)">
					<stop  offset="0" style="stop-color:#8A6D06"/>
					<stop  offset="1" style="stop-color:#FACD30"/>
				</linearGradient>
				<circle style="fill:url(#SVGID_00000113330569325826897010000015444248183370115493_);" cx="3.13" cy="4.11" r="0.36"/>
				
					<linearGradient id="SVGID_00000119100353024227934530000000665411196103117186_" gradientUnits="userSpaceOnUse" x1="0.0957" y1="553.8922" x2="6.1557" y2="553.8922" gradientTransform="matrix(1 0 0 1 0 -549.7872)">
					<stop  offset="0" style="stop-color:#8A6D06"/>
					<stop  offset="1" style="stop-color:#FACD30"/>
				</linearGradient>
				<path style="fill:url(#SVGID_00000119100353024227934530000000665411196103117186_);" d="M3.13,1.08
					c-1.67,0-3.03,1.36-3.03,3.03c0,0.69,0.23,1.33,0.62,1.84V4.51C0.7,4.38,0.69,4.24,0.69,4.11c0-1.34,1.09-2.44,2.44-2.44
					s2.44,1.1,2.44,2.44S4.48,6.55,3.13,6.55c-0.35,0-0.68-0.07-0.98-0.21v0.63c0.31,0.11,0.64,0.16,0.98,0.16
					c1.67,0,3.03-1.36,3.03-3.03C6.16,2.44,4.8,1.08,3.13,1.08z"/>
			</g>
		</g>
	</g>
</g>
</svg>
